<svg data-v-0dd9719b="" version="1.0" xmlns="http://www.w3.org/2000/svg" xmlns:xlink="http://www.w3.org/1999/xlink" width="100%" height="100%" viewBox="0 0 340.000000 250.000000" preserveAspectRatio="xMidYMid meet" color-interpolation-filters="sRGB" style="margin: auto;"> <rect data-v-0dd9719b="" x="0" y="0" width="100%" height="100%" fill="#fff" fill-opacity="1" class="background"></rect> <rect data-v-0dd9719b="" x="0" y="0" width="100%" height="100%" fill="url(#watermark)" fill-opacity="1" class="watermarklayer"></rect> <g data-v-0dd9719b="" fill="#0f0f0f" class="icon-text-wrapper icon-svg-group iconsvg" transform="translate(47.69000244140625,94.99699974060059)"><g class="iconsvg-imagesvg" transform="translate(0,0)"><g><rect fill="#0f0f0f" fill-opacity="0" stroke-width="2" x="0" y="0" width="60" height="60.006000600060005" class="image-rect"></rect> <svg x="0" y="0" width="60" height="60.006000600060005" filtersec="colorsb4677998621" class="image-svg-svg primary" style="overflow: visible;"><svg xmlns="http://www.w3.org/2000/svg" viewBox="1.047568678855896 1.0100001096725464 98.0799331665039 98.09020233154297"><g fill="#0F0F0F"><path d="M68.63 1.49c.01.01 0 .03.01.04v-.05l-.01.01zM99.12 45.39c-.01-.09-.04-.18-.07-.27l-.03-.11c-.05-.12-.11-.24-.18-.35 0-.01-.01-.01-.01-.02L68.64 1.53v.67h-.04c-.42-1.04-1.14-1.17-1.82-1.01 0 0 0-.01-.01-.01l-.01-.01h-.01s0-.16-.01-.16L19.31 13.85c-.03.01-.05-.02-.07-.01-.09.03-.18.04-.26.09a2.29 2.29 0 0 0-.31.19c-.05.04-.09.08-.13.12-.05.05-.1.1-.14.16l-.09.12c-.05.07-.09.15-.12.23-.01.02-.03.04-.04.07l-17.1 43.1c-.02.05.09.11.09.16v.59c0 .08 0 .16.01.23 0 0-.01 0-.01.01v.01c0 .2-.05.39.06.57h-.03-.08c.03.05.04.09.07.14l30.17 38.79v.02l.02.02c.02.03.05.05.08.08l.09.09.09.09c.03.02.06.03.09.06.04.03.08.06.13.08.01 0 .01.01.02.01.09.05.18.09.28.13.04.01.09.03.13.04.02.01.04.02.06.02a1.816 1.816 0 0 0 .71.01l47.42-8.62c.06-.01.11-.02.17-.04.01-.01.03 0 .04 0 .02 0 .04-.03.06-.04.04-.01.08-.04.12-.05.02-.01.05-.02.07-.03.02-.01.03-.02.03-.02.01-.01.02-.02.04-.03.15-.08.28-.18.39-.3.01-.02.02-.04.04-.05.11-.12.21-.26.28-.41.01-.01.02-.02.02-.03 0-.01.01-.02.01-.03 0 0 0-.01.01-.01l.03-.06L99 46.33c.06-.13.09-.27.11-.41.01-.04.01-.08.01-.12.01-.09.01-.18 0-.27.01-.05 0-.1 0-.14zM90.58 39l-4.77-3.18-6.36-12.73L90.58 39zm-9.6-4.98L37.29 19.46 66.42 4.89l14.56 29.13zm-.21 3.64L46.65 64.2 35.27 22.49l45.5 15.17zM50.54 8.9l-17.96 8.98-6.73-2.25L50.54 8.9zm-29.75 8.76l9 3-21 27.02 12-30.02zm11.15 5.98L43.2 64.92l-37.53-7.5 26.27-33.78zm.33 70.31L6.82 61.23l36.36 7.27-10.91 25.45zm3.35 1.12l10.84-25.29 28.9 18.06-39.74 7.23zm43.01-9.32l-29.91-18.7 33.65-26.17-3.74 44.87zm4.23-8.53l3.09-37.07 9.27 6.18-12.36 30.89z"></path></g></svg></svg> <!----></g></g> <g transform="translate(67,6.687999725341797)"><g data-gra="path-name" fill-rule="" class="tp-name iconsvg-namesvg"><g transform="scale(1)"><g><path d="M43.09 0L30.57 0 28.49-7.94 14.72-7.94 12.58 0 0 0 13.82-42.54 29.1-42.54 43.09 0ZM17.1-17.33L26.11-17.33 24.29-24.29Q23.65-26.6 22.74-30.28 21.82-33.97 21.53-35.56L21.53-35.56Q21.27-34.08 20.5-30.69 19.74-27.3 17.1-17.33L17.1-17.33ZM71.7-8.67L71.7 0 44.51 0 44.51-6.46 58.11-24.17 45.3-24.17 45.3-32.84 71.06-32.84 71.06-25.82 58.05-8.67 71.7-8.67ZM92.94 0.58L92.94 0.58Q84.74 0.58 80.2-3.78 75.67-8.14 75.67-16.2L75.67-16.2Q75.67-24.52 79.87-28.97 84.07-33.41 91.87-33.41L91.87-33.41Q99.29-33.41 103.33-29.55 107.37-25.68 107.37-18.4L107.37-18.4 107.37-13.36 87.12-13.36Q87.23-10.61 89.13-9.04 91.03-7.48 94.3-7.48L94.3-7.48Q97.29-7.48 99.8-8.04 102.3-8.61 105.23-9.97L105.23-9.97 105.23-1.83Q102.56-0.46 99.72 0.06 96.88 0.58 92.94 0.58ZM92.27-25.71L92.27-25.71Q90.28-25.71 88.93-24.45 87.58-23.18 87.35-20.49L87.35-20.49 97.09-20.49Q97.03-22.87 95.74-24.29 94.45-25.71 92.27-25.71ZM125.11-45.09L125.11 0 113.78 0 113.78-45.09 125.11-45.09ZM144.35-32.84L144.35 0 133.02 0 133.02-32.84 144.35-32.84ZM132.73-41.01L132.73-41.01Q132.73-43.56 134.15-44.8 135.57-46.05 138.73-46.05L138.73-46.05Q141.89-46.05 143.34-44.78 144.79-43.5 144.79-41.01L144.79-41.01Q144.79-36.02 138.73-36.02L138.73-36.02Q132.73-36.02 132.73-41.01ZM177.62-10.09L177.62-10.09Q177.62-4.81 174.03-2.12 170.44 0.58 163.71 0.58L163.71 0.58Q160.06 0.58 157.37 0.19 154.67-0.2 151.86-1.25L151.86-1.25 151.86-10.32Q154.5-9.16 157.64-8.4 160.79-7.65 163.25-7.65L163.25-7.65Q166.93-7.65 166.93-9.33L166.93-9.33Q166.93-10.2 165.9-10.88 164.87-11.56 159.92-13.53L159.92-13.53Q155.4-15.39 153.6-17.75 151.8-20.11 151.8-23.74L151.8-23.74Q151.8-28.31 155.34-30.86 158.87-33.41 165.34-33.41L165.34-33.41Q168.58-33.41 171.44-32.7 174.29-31.99 177.36-30.63L177.36-30.63 174.29-23.33Q172.03-24.34 169.51-25.05 166.99-25.76 165.39-25.76L165.39-25.76Q162.61-25.76 162.61-24.4L162.61-24.4Q162.61-23.56 163.58-22.97 164.55-22.37 169.19-20.55L169.19-20.55Q172.64-19.13 174.33-17.77 176.03-16.4 176.83-14.56 177.62-12.72 177.62-10.09Z" transform="translate(0, 46.04999923706055)"></path></g> <!----> <!----> <!----> <!----> <!----> <!----> <!----></g></g> <!----></g></g><defs v-gra="od"></defs></svg>